<svg xmlns="http://www.w3.org/2000/svg" viewBox="0 0 1320 430" role="img" aria-labelledby="title desc">
  <title id="title">StericRender</title>
  <desc id="desc">StericRender logo with a circular steric map and wordmark.</desc>
  <defs>
    <clipPath id="mapClip">
      <circle cx="210" cy="210" r="175"/>
    </clipPath>
    <linearGradient id="mapGradient" x1="40" y1="360" x2="380" y2="45" gradientUnits="userSpaceOnUse">
      <stop offset="0" stop-color="#f6e82f"/>
      <stop offset="0.28" stop-color="#cce742"/>
      <stop offset="0.48" stop-color="#59c9d3"/>
      <stop offset="0.68" stop-color="#1e63ad"/>
      <stop offset="1" stop-color="#ffd33f"/>
    </linearGradient>
  </defs>
  <rect width="1320" height="430" fill="#fff"/>
  <g transform="translate(18 5)">
    <circle cx="210" cy="210" r="182" fill="#f8fafc" stroke="#101820" stroke-width="8"/>
    <g clip-path="url(#mapClip)">
      <rect x="25" y="25" width="370" height="370" fill="url(#mapGradient)"/>
      <path d="M72 18c72 60 134 102 138 191 4 91 74 129 142 169" fill="none" stroke="#1e8ba8" stroke-width="34" opacity=".72"/>
      <path d="M350 25c-32 70-76 128-54 196 19 59 71 87 93 146" fill="none" stroke="#ffcc2d" stroke-width="56" opacity=".9"/>
      <path d="M206 24c8 50 6 94-13 131-36 71-33 121 4 206" fill="none" stroke="#142d86" stroke-width="22" opacity=".68"/>
      <path d="M37 302c56-45 108-58 158-38 57 23 102 19 160-12" fill="none" stroke="#d7ed2e" stroke-width="50" opacity=".82"/>
      <g fill="none" stroke="#1f2937" opacity=".32">
        <path d="M44 210h332"/>
        <path d="M210 44v332"/>
        <circle cx="210" cy="210" r="82"/>
        <circle cx="210" cy="210" r="125"/>
        <circle cx="210" cy="210" r="160"/>
      </g>
      <g fill="none" stroke="#111827" opacity=".36" stroke-width="3">
        <path d="M31 132c36-40 94-45 142-12 48 32 98 31 147-3 28-19 57-28 87-27"/>
        <path d="M25 285c52-35 104-38 156-8 47 28 94 25 142-8 26-18 55-25 83-23"/>
        <path d="M84 46c44 47 65 99 62 154-4 70 30 117 102 141 48 16 82 38 103 68"/>
      </g>
    </g>
    <circle cx="128" cy="210" r="43" fill="#f1e92f" stroke="#1f6f63" stroke-width="3" opacity=".9"/>
    <circle cx="292" cy="210" r="43" fill="#f1e92f" stroke="#1f6f63" stroke-width="3" opacity=".9"/>
    <text x="128" y="228" text-anchor="middle" font-family="Georgia,serif" font-size="58" font-style="italic" font-weight="700" fill="#24775f">S</text>
    <text x="292" y="228" text-anchor="middle" font-family="Georgia,serif" font-size="58" font-style="italic" font-weight="700" fill="#24775f">R</text>
    <circle cx="210" cy="210" r="182" fill="none" stroke="#101820" stroke-width="8"/>
  </g>
  <text x="455" y="214" font-family="Georgia,serif" font-size="126" fill="#050505">Steric<tspan fill="#28765f">Render</tspan></text>
  <text x="462" y="282" font-family="Georgia,serif" font-size="42" fill="#28765f">steric map visualisation</text>
</svg>
